<?xml version="1.0" encoding="UTF-8"?>
<svg xmlns="http://www.w3.org/2000/svg" xmlns:xlink="http://www.w3.org/1999/xlink" width="20px" height="20px" viewBox="0 0 20 20" version="1.1">
<defs>
<linearGradient id="linear0" gradientUnits="userSpaceOnUse" x1="2.94192" y1="4.89955" x2="37.7772" y2="39.7345" gradientTransform="matrix(0.5,0,0,0.5,0,0)">
<stop offset="0.15937" style="stop-color:rgb(23.137255%,91.764706%,38.431373%);stop-opacity:1;"/>
<stop offset="0.5404" style="stop-color:rgb(23.529412%,60%,80%);stop-opacity:1;"/>
<stop offset="0.93739" style="stop-color:rgb(41.960784%,34.117647%,100%);stop-opacity:1;"/>
</linearGradient>
</defs>
<g id="surface1">
<path style=" stroke:none;fill-rule:nonzero;fill:url(#linear0);" d="M 16.042969 3.96875 L 16.042969 2 L 12.011719 2 L 12.011719 3.996094 L 8.015625 3.996094 L 8.015625 2 L 3.957031 2 L 3.957031 3.96875 L 2 3.96875 L 2 18 L 8.003906 18 L 8.003906 16.003906 C 8.003906 15.472656 8.214844 14.964844 8.589844 14.589844 C 8.964844 14.21875 9.46875 14.007812 10 14.007812 C 10.53125 14.007812 11.039062 14.21875 11.410156 14.589844 C 11.785156 14.964844 11.996094 15.472656 11.996094 16.003906 L 11.996094 18 L 18 18 L 18 3.96875 Z M 16.042969 3.96875 "/>
</g>
</svg>
